Coordinates
version=1
nRows=21
nColumns=22
inDegrees=yes

Units are S.I. units (second, meters, Newtons, ...)
If the header above contains a line with 'inDegrees', this indicates whether rotational values are in degrees (yes) or radians (no).

endheader
time	pelvis_tilt	pelvis_list	pelvis_rotation	pelvis_tx	pelvis_ty	pelvis_tz	hip_flexion_r	hip_adduction_r	hip_rotation_r	knee_angle_r	ankle_angle_r	subtalar_angle_r	hip_flexion_l	hip_adduction_l	hip_rotation_l	knee_angle_l	ankle_angle_l	subtalar_angle_l	lumbar_extension	lumbar_bending	lumbar_rotation
      2.68000000	     -4.74930076	      1.56518797	    -28.82750905	     -0.38669354	      0.82365376	      0.19682112	     44.11488779	     -6.55719184	     -2.81243104	    -99.94274449	     11.70034358	     -1.06945026	      6.74440259	     -2.11795866	      2.35804839	    -40.34648639	     33.66909270	      5.20813623	    -12.05001777	      0.04981331	      3.47296015
      2.69000000	     -4.95378477	      0.97418462	    -28.60755659	     -0.36599152	      0.82771277	      0.20875382	     45.84034081	     -6.09766422	     -3.86574051	    -96.66643486	     11.93667026	     -0.94677757	      4.04741943	     -2.82877485	      2.97914678	    -38.50495350	     31.64384185	      5.76653535	    -11.79683124	      0.95132357	      2.62719914
      2.70000000	     -5.25058107	      0.41756400	    -28.49879495	     -0.34506801	      0.83247035	      0.22108373	     47.18789253	     -5.52565441	     -4.88231683	    -92.59206724	     12.03217812	     -0.71527152	      1.47942696	     -3.60443332	      3.45639544	    -36.62353706	     28.92939087	      6.66182584	    -11.39056173	      1.86996751	      1.91423651
      2.71000000	     -5.61723724	     -0.07991890	    -28.45385642	     -0.32391878	      0.83780114	      0.23365579	     48.11750399	     -4.91483822	     -5.87504137	    -87.76805584	     12.02415246	     -0.39343668	     -0.90380726	     -4.37172832	      3.86464637	    -34.78742383	     25.57859812	      7.43291888	    -10.85308894	      2.78066439	      1.30084608
      2.72000000	     -6.04122599	     -0.46607977	    -28.47838092	     -0.30260768	      0.84351105	      0.24645117	     48.65974959	     -4.29396713	     -6.79595456	    -82.26766250	     11.79296345	      0.03488874	     -3.02683346	     -5.06435784	      4.20177976	    -33.08985192	     21.65543952	      8.32009447	    -10.17651438	      3.61761351	      0.79159986
      2.73000000	     -6.50222389	     -0.68931651	    -28.57313989	     -0.28123868	      0.84938920	      0.25942886	     48.84994893	     -3.66931607	     -7.55898073	    -76.17112774	     11.26053187	      0.64000281	     -4.81325978	     -5.61457029	      4.47313631	    -31.63145745	     17.27894575	      9.41181942	     -9.37029958	      4.31616710	      0.35326975
      2.74000000	     -6.93374503	     -0.76854869	    -28.71916777	     -0.25969778	      0.85532093	      0.27259895	     48.60816885	     -3.08318735	     -8.19797342	    -69.55660470	     10.51540737	      1.34783113	     -6.31031442	     -6.00183869	      4.68825127	    -30.45891633	     12.63624685	     10.39900632	     -8.49813700	      4.85892984	      0.00634750
      2.75000000	     -7.31692538	     -0.65359866	    -28.88620613	     -0.23804000	      0.86104888	      0.28588711	     48.00996075	     -2.58576208	     -8.66769929	    -62.55995158	      9.34064793	      2.29955511	     -7.44678033	     -6.16438525	      4.91422165	    -29.66785367	      7.96335006	     11.47360990	     -7.55868094	      5.18493930	     -0.27043608
      2.76000000	     -7.58192692	     -0.38468997	    -29.05220333	     -0.21615221	      0.86641660	      0.29934975	     47.00824172	     -2.19835736	     -8.99912065	    -55.33571312	      7.85960590	      3.39328909	     -8.29225751	     -6.12260835	      5.09772841	    -29.30412981	      3.50319294	     12.40568892	     -6.62669618	      5.29323689	     -0.51670976
      2.77000000	     -7.70422894	      0.04715040	    -29.19406780	     -0.19402546	      0.87118295	      0.31295021	     45.69154863	     -1.97335248	     -9.20372457	    -48.11750679	      5.99265560	      4.68865021	     -8.83403165	     -5.85676609	      5.27734935	    -29.44271525	     -0.48240341	     13.22847304	     -5.72156930	      5.15736265	     -0.70363769
      2.78000000	     -7.65571722	      0.60788005	    -29.30696621	     -0.17162287	      0.87516377	      0.32673387	     44.13422551	     -1.92247718	     -9.31393225	    -41.18560777	      3.85538969	      6.09498727	     -9.11422823	     -5.39755270	      5.40861625	    -30.12324609	     -3.78608062	     13.85122717	     -4.88285329	      4.79082160	     -0.84659989
      2.79000000	     -7.43493818	      1.25981955	    -29.39730792	     -0.14900124	      0.87820678	      0.34068827	     42.46189868	     -2.04267267	     -9.36231324	    -34.85858732	      1.59850191	      7.50883833	     -9.13772846	     -4.78837165	      5.44377429	    -31.40736580	     -6.26881562	     14.23927056	     -4.14319938	      4.22906235	     -0.92273756
      2.80000000	     -7.06727291	      1.94457945	    -29.48728091	     -0.12631965	      0.88023681	      0.35481349	     40.80780426	     -2.28823206	     -9.38553506	    -29.43221400	     -0.58408251	      8.84252099	     -8.89824120	     -4.11083526	      5.31832129	    -33.33931217	     -7.88396393	     14.39098834	     -3.53171466	      3.53541211	     -0.90880761
      2.81000000	     -6.61579382	      2.58132749	    -29.60623542	     -0.10371078	      0.88124292	      0.36906367	     39.26679124	     -2.56308220	     -9.39328916	    -25.08213578	     -2.46124698	      9.95139582	     -8.39967425	     -3.47463083	      5.02040384	    -35.89328955	     -8.66715270	     14.30793331	     -3.04922098	      2.83480621	     -0.75722062
      2.82000000	     -6.12589570	      3.08508832	    -29.78082046	     -0.08137635	      0.88127997	      0.38339584	     37.87187876	     -2.76305913	     -9.36754101	    -21.88014664	     -3.86999144	     10.69831954	     -7.65228568	     -2.99546996	      4.52380900	    -39.04395776	     -8.71695964	     14.03999844	     -2.72564532	      2.23651623	     -0.44815940
      2.83000000	     -5.61613929	      3.40045735	    -30.02569896	     -0.05942155	      0.88043723	      0.39770646	     36.61593416	     -2.83256903	     -9.27265244	    -19.82278747	     -4.72806019	     11.09507028	     -6.70234409	     -2.73610758	      3.86385593	    -42.70344545	     -8.20398228	     13.60708963	     -2.59234806	      1.81708164	      0.02846074
      2.84000000	     -5.11910809	      3.48174227	    -30.35148640	     -0.03793260	      0.87877997	      0.41196514	     35.47054879	     -2.70123164	     -9.05370605	    -18.82105643	     -4.97300725	     11.03405026	     -5.58720562	     -2.75931772	      3.09855917	    -46.76829474	     -7.29049761	     13.06790603	     -2.65427923	      1.63971406	      0.66998608
      2.85000000	     -4.61655724	      3.32280858	    -30.76933807	     -0.01691891	      0.87637880	      0.42611178	     34.41742869	     -2.36985480	     -8.69052565	    -18.83315000	     -4.54938489	     10.43386727	     -4.38358257	     -3.05978157	      2.26764689	    -51.11442868	     -6.08126110	     12.42582626	     -2.94091730	      1.70210225	      1.47946271
      2.86000000	     -4.12197700	      2.92742687	    -31.25080170	      0.00363931	      0.87329146	      0.44007232	     33.44833520	     -1.84276883	     -8.18847046	    -19.76699977	     -3.44038666	      9.31196627	     -3.10645182	     -3.63590498	      1.46240677	    -55.64656388	     -4.77013404	     11.81846174	     -3.43978575	      2.00591646	      2.41809906
      2.87000000	     -3.61321979	      2.33586860	    -31.78952571	      0.02376795	      0.86958918	      0.45379350	     32.57949584	     -1.16944402	     -7.58756362	    -21.57650388	     -1.69372591	      7.72067891	     -1.79275314	     -4.43473300	      0.70947724	    -60.25359038	     -3.44304824	     11.25372170	     -4.15355473	      2.49343814	      3.47002605
      2.88000000	     -3.04874388	      1.61155492	    -32.36712146	      0.04349942	      0.86539395	      0.46722487	     31.78713431	     -0.42488407	     -6.90390299	    -24.14187526	      0.62646901	      5.72402763	     -0.47947804	     -5.35092480	      0.07054106	    -64.82402054	     -2.08659850	     10.73494804	     -5.08503684	      3.06514781	      4.59727622
